<svg width="468" height="486" viewBox="0 0 468 486" fill="none" xmlns="http://www.w3.org/2000/svg">
<path d="M350.94 -230.114C352.079 -231.23 352.649 -231.788 353.143 -232.253C379.465 -257.038 420.536 -257.038 446.857 -232.253C447.351 -231.788 447.921 -231.23 449.06 -230.114C449.743 -229.444 450.085 -229.109 450.41 -228.799C467.253 -212.725 491.12 -206.33 513.744 -211.829C514.18 -211.935 514.643 -212.054 515.57 -212.293C517.115 -212.69 517.887 -212.888 518.547 -213.044C553.735 -221.348 589.304 -200.812 599.706 -166.187C599.901 -165.537 600.115 -164.769 600.544 -163.233C600.801 -162.311 600.93 -161.85 601.056 -161.419C607.605 -139.077 625.077 -121.605 647.419 -115.056C647.85 -114.93 648.311 -114.801 649.233 -114.544C650.769 -114.115 651.537 -113.901 652.187 -113.706C686.812 -103.303 707.348 -67.7349 699.044 -32.5469C698.888 -31.8869 698.69 -31.1147 698.293 -29.5701C698.054 -28.6433 697.935 -28.1799 697.829 -27.7436C692.33 -5.11986 698.725 18.7472 714.799 35.5903C715.109 35.9151 715.444 36.2569 716.114 36.9404C717.23 38.0795 717.788 38.649 718.253 39.1427C743.038 65.4645 743.038 106.536 718.253 132.857C717.788 133.351 717.23 133.921 716.114 135.06C715.444 135.743 715.109 136.085 714.799 136.41C698.725 153.253 692.33 177.12 697.829 199.744C697.935 200.18 698.054 200.643 698.293 201.57C698.69 203.115 698.888 203.887 699.044 204.547C707.348 239.735 686.812 275.304 652.187 285.706C651.537 285.901 650.769 286.115 649.233 286.544C648.311 286.801 647.85 286.93 647.419 287.056C625.077 293.605 607.605 311.077 601.056 333.419C600.93 333.85 600.801 334.311 600.544 335.233C600.115 336.769 599.901 337.537 599.706 338.187C589.304 372.812 553.735 393.348 518.547 385.044C517.887 384.888 517.115 384.69 515.57 384.293C514.643 384.054 514.18 383.935 513.744 383.829C491.12 378.33 467.253 384.725 450.41 400.799C450.085 401.109 449.743 401.444 449.06 402.114C447.921 403.23 447.351 403.788 446.857 404.253C420.536 429.038 379.465 429.038 353.143 404.253C352.649 403.788 352.079 403.23 350.94 402.114C350.257 401.444 349.915 401.109 349.59 400.799C332.747 384.725 308.88 378.33 286.256 383.829C285.82 383.935 285.357 384.054 284.43 384.293C282.885 384.69 282.113 384.888 281.453 385.044C246.265 393.348 210.697 372.812 200.294 338.187C200.099 337.537 199.885 336.769 199.456 335.233C199.199 334.311 199.07 333.85 198.944 333.419C192.395 311.077 174.923 293.605 152.581 287.056C152.15 286.93 151.689 286.801 150.767 286.544C149.231 286.115 148.463 285.901 147.813 285.706C113.188 275.304 92.6522 239.735 100.956 204.547C101.112 203.887 101.31 203.115 101.707 201.57C101.946 200.643 102.065 200.18 102.171 199.744C107.67 177.12 101.275 153.253 85.2006 136.41C84.8905 136.085 84.5557 135.743 83.886 135.06C82.7699 133.921 82.2118 133.351 81.747 132.857C56.9615 106.536 56.9615 65.4645 81.747 39.1427C82.2118 38.649 82.7699 38.0795 83.886 36.9404C84.5557 36.2569 84.8905 35.9151 85.2006 35.5902C101.275 18.7471 107.67 -5.11986 102.171 -27.7436C102.065 -28.1799 101.946 -28.6433 101.707 -29.5701C101.31 -31.1147 101.112 -31.8869 100.956 -32.5469C92.6522 -67.735 113.188 -103.303 147.813 -113.706C148.463 -113.901 149.231 -114.115 150.767 -114.544C151.689 -114.801 152.15 -114.93 152.581 -115.056C174.923 -121.605 192.395 -139.077 198.944 -161.419C199.07 -161.85 199.199 -162.311 199.456 -163.233C199.885 -164.769 200.099 -165.537 200.294 -166.187C210.697 -200.812 246.265 -221.348 281.453 -213.044C282.113 -212.888 282.885 -212.69 284.43 -212.293C285.357 -212.054 285.82 -211.935 286.256 -211.829C308.88 -206.33 332.747 -212.725 349.59 -228.799C349.915 -229.109 350.257 -229.444 350.94 -230.114Z" fill="#ECF3FE"/>
</svg>
