<svg width="120" height="120" viewBox="0 0 120 120" fill="none" xmlns="http://www.w3.org/2000/svg">
<g clip-path="url(#clip0_10629_3365)">
<path fill-rule="evenodd" clip-rule="evenodd" d="M120 59.0722C120 68.9042 113.07 77.1164 103.833 79.0834C112.833 81.2258 119.527 89.3244 119.527 98.9878C119.527 110.287 110.375 119.447 99.0849 119.447C89.7005 119.447 81.793 113.118 79.3913 104.492C76.9896 113.118 69.0821 119.447 59.6977 119.447C50.3972 119.447 42.5473 113.231 40.0698 104.723C37.5923 113.231 29.7425 119.447 20.4419 119.447C9.15216 119.447 0 110.287 0 98.9878C0 89.2422 6.80833 81.0881 15.9243 79.03C6.80833 76.9718 0 68.8177 0 59.0721C0 50.1519 5.70393 42.565 13.6606 39.7656C5.70393 36.9663 0 29.3794 0 20.4592C0 9.15987 9.15216 0 20.4419 0C29.7425 0 37.5923 6.21636 40.0698 14.7241C40.0833 14.6778 40.1107 14.7241 40.1107 14.7241C42.6328 6.28759 50.4478 0 59.6977 0C69.4181 0 77.5538 6.79025 79.6279 15.8899C81.702 6.79025 89.8377 0 99.5581 0C110.848 0 120 9.15987 120 20.4592C120 29.3794 114.296 36.9663 106.339 39.7657C114.296 42.565 120 50.1519 120 59.0722Z" fill="#6991D6"/>
</g>
<defs>
<clipPath id="clip0_10629_3365">
<rect width="120" height="120" fill="white"/>
</clipPath>
</defs>
</svg>
