<svg width="121" height="122" viewBox="0 0 121 122" fill="none" xmlns="http://www.w3.org/2000/svg">
<path d="M120.371 90.1738C120.371 107.683 106.294 121.877 88.9297 121.877C76.102 121.877 65.0713 114.13 60.1816 103.023C55.2916 114.129 44.2599 121.875 31.4326 121.875C14.0683 121.875 -0.00781719 107.681 -0.00781642 90.1719C-0.00770141 77.2406 7.67059 66.1188 18.6807 61.1865C7.67288 56.2532 -0.00482373 45.1337 -0.0048842 32.2041C-0.00488343 14.695 14.0722 0.501118 31.4365 0.500973C44.2619 0.500973 55.2925 8.24459 60.1836 19.3477C65.0746 8.24442 76.1043 0.500106 88.9297 0.499999C106.294 0.499999 120.371 14.694 120.371 32.2031C120.371 45.1347 112.692 56.2562 101.682 61.1885C112.692 66.1207 120.371 77.2423 120.371 90.1738Z" fill="#6991D6"/>
</svg>
