<svg width="480" height="480" viewBox="0 0 480 480" fill="none" xmlns="http://www.w3.org/2000/svg">
<path d="M429.474 249.023C429.474 348.683 344.643 429.474 240 429.474C135.356 429.474 50.5263 348.683 50.5263 249.023L50.5262 122.707C50.5262 82.8425 84.4583 50.5262 126.316 50.5262C138.722 50.5262 150.433 53.3654 160.77 58.3987C166.037 60.9634 171.292 63.7747 176.569 66.598C195.142 76.5336 213.989 86.6165 234.606 86.6165H245.393C266.011 86.6165 284.858 76.5336 303.431 66.598C308.708 63.7747 313.963 60.9634 319.23 58.3987C329.567 53.3654 341.278 50.5262 353.684 50.5262C395.542 50.5262 429.474 82.8425 429.474 122.707V249.023Z" fill="white"/>
<path d="M429.474 249.023C429.474 348.683 344.643 429.474 240 429.474C135.356 429.474 50.5263 348.683 50.5263 249.023L50.5262 122.707C50.5262 82.8425 84.4583 50.5262 126.316 50.5262C138.722 50.5262 150.433 53.3654 160.77 58.3987C166.037 60.9634 171.292 63.7747 176.569 66.598C195.142 76.5336 213.989 86.6165 234.606 86.6165H245.393C266.011 86.6165 284.858 76.5336 303.431 66.598C308.708 63.7747 313.963 60.9634 319.23 58.3987C329.567 53.3654 341.278 50.5262 353.684 50.5262C395.542 50.5262 429.474 82.8425 429.474 122.707V249.023Z" fill="url(#paint0_linear_9587_3577)"/>
<defs>
<linearGradient id="paint0_linear_9587_3577" x1="429.474" y1="240" x2="50.5262" y2="240" gradientUnits="userSpaceOnUse">
<stop offset="0.3" stop-color="#F5FAFF"/>
<stop offset="1" stop-color="#E7F2FF"/>
</linearGradient>
</defs>
</svg>
